<svg width="219" height="200" viewBox="0 0 219 200" fill="none" xmlns="http://www.w3.org/2000/svg">
    <path d="M214.783 160.493L131.649 13.3773C127.027 5.19694 118.747 0.3125 109.501 0.3125C100.255 0.3125 91.9744 5.19694 87.3517 13.3773L4.21808 160.493C-0.405052 168.674 -0.405052 178.442 4.21808 186.623C8.84122 194.803 17.1206 199.688 26.3669 199.688H192.634C201.88 199.688 210.16 194.803 214.783 186.623C219.407 178.442 219.407 168.674 214.783 160.493ZM203.748 180.114C201.428 184.219 197.273 186.669 192.634 186.669H26.3669C21.7272 186.669 17.5726 184.219 15.2532 180.114C12.9338 176.009 12.9338 171.108 15.2532 167.003L98.3876 19.8872C100.707 15.7822 104.862 13.3317 109.501 13.3317C114.14 13.3317 118.295 15.7822 120.614 19.8872L203.748 167.003C206.067 171.108 206.067 176.009 203.748 180.114Z" fill="#CB0000"/>
    <path d="M115.871 65.2829H103.129V130.378H115.871V65.2829Z" fill="#CB0000"/>
    <path d="M109.501 143.398C104.816 143.398 101.005 147.291 101.005 152.077C101.005 156.863 104.816 160.757 109.501 160.757C114.184 160.757 117.996 156.863 117.996 152.077C117.996 147.291 114.185 143.398 109.501 143.398Z" fill="#CB0000"/>
</svg>
