<svg width="129" height="128" viewBox="0 0 129 128" fill="none" xmlns="http://www.w3.org/2000/svg">
    <path d="M17.5134 33.6384C17.1924 33.3212 16.9376 32.9438 16.7637 32.528C16.5898 32.1122 16.5002 31.6662 16.5002 31.2158C16.5002 30.7653 16.5898 30.3194 16.7637 29.9036C16.9376 29.4878 17.1924 29.1104 17.5134 28.7932L29.0908 17.2603C29.7358 16.6178 30.6106 16.2568 31.5228 16.2568C31.9744 16.2568 32.4216 16.3454 32.8389 16.5176C33.2562 16.6898 33.6353 16.9422 33.9547 17.2603C34.2741 17.5784 34.5274 17.9561 34.7002 18.3718C34.8731 18.7875 34.962 19.233 34.962 19.6829C34.962 20.1328 34.8731 20.5783 34.7002 20.994C34.5274 21.4096 34.2741 21.7873 33.9547 22.1055L22.3773 33.6384C22.0589 33.9582 21.68 34.212 21.2626 34.3852C20.8452 34.5585 20.3975 34.6477 19.9454 34.6477C19.4932 34.6477 19.0455 34.5585 18.6281 34.3852C18.2107 34.212 17.8319 33.9582 17.5134 33.6384ZM19.9454 53.8039C20.3962 53.8065 20.843 53.7204 21.2603 53.5506C21.6777 53.3808 22.0572 53.1306 22.3773 52.8144L53.2047 22.1055C53.524 21.7873 53.7774 21.4096 53.9502 20.994C54.123 20.5783 54.212 20.1328 54.212 19.6829C54.212 19.233 54.123 18.7875 53.9502 18.3718C53.7774 17.9561 53.524 17.5784 53.2047 17.2603C52.8853 16.9422 52.5062 16.6898 52.0889 16.5176C51.6716 16.3454 51.2244 16.2568 50.7727 16.2568C49.8606 16.2568 48.9858 16.6178 48.3408 17.2603L17.5134 47.9692C17.1924 48.2864 16.9376 48.6638 16.7637 49.0796C16.5898 49.4954 16.5002 49.9413 16.5002 50.3918C16.5002 50.8422 16.5898 51.2882 16.7637 51.704C16.9376 52.1198 17.1924 52.4972 17.5134 52.8144C17.8335 53.1306 18.2131 53.3808 18.6304 53.5506C19.0477 53.7204 19.4946 53.8065 19.9454 53.8039ZM19.9454 73.1164C20.3962 73.119 20.843 73.0329 21.2603 72.8631C21.6777 72.6933 22.0572 72.4431 22.3773 72.1269L72.6602 22.1055C73.0411 21.8103 73.3552 21.4383 73.5817 21.0138C73.8083 20.5894 73.9422 20.122 73.9748 19.6423C74.0074 19.1626 73.9378 18.6815 73.7707 18.2305C73.6036 17.7795 73.3427 17.3688 73.0051 17.0252C72.6675 16.6817 72.2608 16.4131 71.8118 16.237C71.3627 16.0609 70.8813 15.9814 70.3992 16.0036C69.9171 16.0258 69.4452 16.1492 69.0143 16.3658C68.5834 16.5824 68.2034 16.8872 67.899 17.2603L17.5134 67.4523C17.1924 67.7695 16.9376 68.1469 16.7637 68.5627C16.5898 68.9785 16.5002 69.4244 16.5002 69.8749C16.5002 70.3253 16.5898 70.7713 16.7637 71.1871C16.9376 71.6029 17.1924 71.9803 17.5134 72.2975C18.1763 72.8988 19.0494 73.2173 19.9454 73.1846V73.1164ZM19.9454 92.4288C20.3962 92.4314 20.843 92.3454 21.2603 92.1756C21.6777 92.0058 22.0572 91.7556 22.3773 91.4393L92.0471 22.1055C92.6921 21.463 93.0545 20.5915 93.0545 19.6829C93.0545 18.7742 92.6921 17.9028 92.0471 17.2603C91.4022 16.6178 90.5274 16.2568 89.6152 16.2568C88.7031 16.2568 87.8283 16.6178 87.1833 17.2603L17.5134 86.6624C17.1924 86.9796 16.9376 87.357 16.7637 87.7728C16.5898 88.1886 16.5002 88.6346 16.5002 89.085C16.5002 89.5354 16.5898 89.9814 16.7637 90.3972C16.9376 90.813 17.1924 91.1904 17.5134 91.5076C17.8335 91.8238 18.2131 92.074 18.6304 92.2438C19.0477 92.4136 19.4946 92.4997 19.9454 92.4971V92.4288ZM111.434 17.3627C111.116 17.0428 110.737 16.789 110.319 16.6158C109.902 16.4425 109.454 16.3534 109.002 16.3534C108.55 16.3534 108.102 16.4425 107.685 16.6158C107.268 16.789 106.889 17.0428 106.57 17.3627L17.5134 106.077C17.1924 106.394 16.9376 106.772 16.7637 107.188C16.5898 107.603 16.5002 108.049 16.5002 108.5C16.5002 108.95 16.5898 109.396 16.7637 109.812C16.9376 110.228 17.1924 110.605 17.5134 110.922C17.8319 111.242 18.2107 111.496 18.6281 111.669C19.0455 111.843 19.4932 111.932 19.9454 111.932C20.3975 111.932 20.8452 111.843 21.2626 111.669C21.68 111.496 22.0589 111.242 22.3773 110.922L111.434 22.2078C111.771 21.8891 112.039 21.5054 112.222 21.0801C112.406 20.6548 112.5 20.1969 112.5 19.7341C112.5 19.2713 112.406 18.8133 112.222 18.388C112.039 17.9627 111.771 17.5791 111.434 17.2603V17.3627ZM106.57 36.7434L37.0717 105.975C36.7506 106.292 36.4958 106.669 36.3219 107.085C36.148 107.501 36.0585 107.947 36.0585 108.397C36.0585 108.848 36.148 109.294 36.3219 109.71C36.4958 110.125 36.7506 110.503 37.0717 110.82C37.3901 111.14 37.7689 111.394 38.1863 111.567C38.6037 111.74 39.0514 111.829 39.5036 111.829C39.9558 111.829 40.4035 111.74 40.8209 111.567C41.2383 111.394 41.6171 111.14 41.9356 110.82L111.434 41.418C111.895 40.7524 112.103 39.9456 112.022 39.1413C111.941 38.337 111.576 37.5874 110.992 37.0262C110.408 36.4649 109.643 36.1284 108.833 36.0766C108.023 36.0248 107.221 36.2611 106.57 36.7434ZM106.57 56.0559L56.2874 105.975C55.9664 106.292 55.7115 106.669 55.5376 107.085C55.3637 107.501 55.2742 107.947 55.2742 108.397C55.2742 108.848 55.3637 109.294 55.5376 109.71C55.7115 110.125 55.9664 110.503 56.2874 110.82C56.6058 111.14 56.9847 111.394 57.4021 111.567C57.8195 111.74 58.2672 111.829 58.7193 111.829C59.1715 111.829 59.6192 111.74 60.0366 111.567C60.454 111.394 60.8329 111.14 61.1513 110.82L111.434 60.6281C112.079 59.9856 112.441 59.1141 112.441 58.2055C112.441 57.2968 112.079 56.4254 111.434 55.7829C110.789 55.1404 109.914 54.7794 109.002 54.7794C108.09 54.7794 107.215 55.1404 106.57 55.7829V56.0559ZM106.57 75.3683L75.7429 106.077C75.4219 106.394 75.167 106.772 74.9931 107.188C74.8192 107.603 74.7297 108.049 74.7297 108.5C74.7297 108.95 74.8192 109.396 74.9931 109.812C75.167 110.228 75.4219 110.605 75.7429 110.922C76.0613 111.242 76.4402 111.496 76.8576 111.669C77.275 111.843 77.7227 111.932 78.1748 111.932C78.627 111.932 79.0747 111.843 79.4921 111.669C79.9095 111.496 80.2883 111.242 80.6068 110.922L111.434 80.2135C112.079 79.571 112.441 78.6996 112.441 77.7909C112.441 76.8823 112.079 76.0109 111.434 75.3683C110.789 74.7258 109.914 74.3649 109.002 74.3649C108.09 74.3649 107.215 74.7258 106.57 75.3683ZM106.57 94.6126L94.9929 106.145C94.6718 106.463 94.417 106.84 94.2431 107.256C94.0692 107.672 93.9797 108.118 93.9797 108.568C93.9797 109.019 94.0692 109.464 94.2431 109.88C94.417 110.296 94.6718 110.673 94.9929 110.991C95.3113 111.31 95.6901 111.564 96.1075 111.738C96.5249 111.911 96.9726 112 97.4248 112C97.877 112 98.3247 111.911 98.7421 111.738C99.1595 111.564 99.5383 111.31 99.8567 110.991L111.434 99.4578C111.753 99.1396 112.007 98.7619 112.18 98.3463C112.353 97.9306 112.441 97.4851 112.441 97.0352C112.441 96.5853 112.353 96.1398 112.18 95.7241C112.007 95.3084 111.753 94.9307 111.434 94.6126C111.115 94.2944 110.736 94.0421 110.318 93.8699C109.901 93.6977 109.454 93.6091 109.002 93.6091C108.551 93.6091 108.103 93.6977 107.686 93.8699C107.269 94.0421 106.89 94.2944 106.57 94.6126Z" fill="#676767"/>
</svg>
