<svg width="24" height="24" viewBox="0 0 24 24" fill="none" xmlns="http://www.w3.org/2000/svg">
    <path d="M1.17209 24C0.940281 24 0.71367 23.9313 0.520917 23.8026C0.328165 23.6738 0.17793 23.4908 0.0892159 23.2766C0.000501989 23.0625 -0.0227053 22.8268 0.0225296 22.5995C0.0677644 22.3721 0.179409 22.1633 0.343342 21.9994L21.9995 0.343277C22.2192 0.123481 22.5174 0 22.8282 0C23.139 0 23.4371 0.123481 23.6569 0.343277C23.8767 0.563074 24.0002 0.861182 24.0002 1.17202C24.0002 1.48286 23.8767 1.78097 23.6569 2.00077L2.00083 23.6569C1.8921 23.7658 1.76291 23.8522 1.62069 23.9111C1.47847 23.97 1.32602 24.0002 1.17209 24Z" fill="black"/>
    <path d="M22.8282 24C22.6743 24.0002 22.5218 23.97 22.3796 23.9111C22.2374 23.8522 22.1082 23.7658 21.9995 23.6569L0.343342 2.00077C0.123545 1.78097 6.4554e-05 1.48286 6.4554e-05 1.17202C6.4554e-05 0.861182 0.123545 0.563074 0.343342 0.343277C0.563139 0.123481 0.861247 0 1.17209 0C1.48293 0 1.78103 0.123481 2.00083 0.343277L23.6569 21.9994C23.8209 22.1633 23.9325 22.3721 23.9778 22.5995C24.023 22.8268 23.9998 23.0625 23.9111 23.2766C23.8224 23.4908 23.6721 23.6738 23.4794 23.8026C23.2866 23.9313 23.06 24 22.8282 24Z" fill="black"/>
</svg>
