<svg width="18" height="18" viewBox="0 0 18 18" fill="none" xmlns="http://www.w3.org/2000/svg">
    <path d="M13.375 5.93163C13.2092 5.93163 13.0503 5.99628 12.9331 6.11135C12.8158 6.22643 12.75 6.3825 12.75 6.54524V13.4121C12.7321 13.7224 12.59 14.0132 12.3547 14.2211C12.1194 14.429 11.8099 14.5372 11.4937 14.5221H6.50625C6.19006 14.5372 5.88061 14.429 5.64532 14.2211C5.41002 14.0132 5.26793 13.7224 5.25 13.4121V6.54524C5.25 6.3825 5.18415 6.22643 5.06694 6.11135C4.94973 5.99628 4.79076 5.93163 4.625 5.93163C4.45924 5.93163 4.30027 5.99628 4.18306 6.11135C4.06585 6.22643 4 6.3825 4 6.54524V13.4121C4.01784 14.0479 4.29161 14.6509 4.76136 15.089C5.23111 15.527 5.85855 15.7645 6.50625 15.7493H11.4937C12.1415 15.7645 12.7689 15.527 13.2386 15.089C13.7084 14.6509 13.9822 14.0479 14 13.4121V6.54524C14 6.3825 13.9342 6.22643 13.8169 6.11135C13.6997 5.99628 13.5408 5.93163 13.375 5.93163Z" fill="#CB0000"/>
    <path d="M14 4.09082H11.5V2.86361C11.5 2.70087 11.4342 2.54479 11.3169 2.42972C11.1997 2.31465 11.0408 2.25 10.875 2.25H7.125C6.95924 2.25 6.80027 2.31465 6.68306 2.42972C6.56585 2.54479 6.5 2.70087 6.5 2.86361V4.09082H4C3.83424 4.09082 3.67527 4.15546 3.55806 4.27054C3.44085 4.38561 3.375 4.54168 3.375 4.70442C3.375 4.86716 3.44085 5.02323 3.55806 5.1383C3.67527 5.25338 3.83424 5.31803 4 5.31803H14C14.1658 5.31803 14.3247 5.25338 14.4419 5.1383C14.5592 5.02323 14.625 4.86716 14.625 4.70442C14.625 4.54168 14.5592 4.38561 14.4419 4.27054C14.3247 4.15546 14.1658 4.09082 14 4.09082ZM7.75 4.09082V3.47721H10.25V4.09082H7.75Z" fill="#CB0000"/>
    <path d="M8.375 12.0677V7.77245C8.375 7.60971 8.30915 7.45364 8.19194 7.33856C8.07473 7.22349 7.91576 7.15884 7.75 7.15884C7.58424 7.15884 7.42527 7.22349 7.30806 7.33856C7.19085 7.45364 7.125 7.60971 7.125 7.77245V12.0677C7.125 12.2304 7.19085 12.3865 7.30806 12.5016C7.42527 12.6166 7.58424 12.6813 7.75 12.6813C7.91576 12.6813 8.07473 12.6166 8.19194 12.5016C8.30915 12.3865 8.375 12.2304 8.375 12.0677Z" fill="#CB0000"/>
    <path d="M10.875 12.0677V7.77245C10.875 7.60971 10.8092 7.45364 10.6919 7.33856C10.5747 7.22349 10.4158 7.15884 10.25 7.15884C10.0842 7.15884 9.92527 7.22349 9.80806 7.33856C9.69085 7.45364 9.625 7.60971 9.625 7.77245V12.0677C9.625 12.2304 9.69085 12.3865 9.80806 12.5016C9.92527 12.6166 10.0842 12.6813 10.25 12.6813C10.4158 12.6813 10.5747 12.6166 10.6919 12.5016C10.8092 12.3865 10.875 12.2304 10.875 12.0677Z" fill="#CB0000"/>
</svg>
