<svg width="129" height="128" viewBox="0 0 129 128" fill="none" xmlns="http://www.w3.org/2000/svg">
    <path d="M86.309 107.999C85.637 107.999 84.949 107.915 84.269 107.735L22.4176 91.1715C18.1777 90.0035 15.6497 85.6116 16.7617 81.3716L24.5656 52.2839C24.8536 51.2159 25.9496 50.5959 27.0136 50.8679C28.0816 51.1519 28.7136 52.2519 28.4296 53.3159L20.6296 82.3956C20.0736 84.5156 21.3456 86.7235 23.4696 87.3115L85.297 103.867C87.421 104.427 89.613 103.163 90.165 101.051L93.2889 89.4755C93.5769 88.4075 94.6729 87.7715 95.7409 88.0635C96.8089 88.3515 97.4369 89.4515 97.1529 90.5155L94.0329 102.075C93.0929 105.635 89.853 107.999 86.309 107.999Z" fill="#676767"/>
    <path d="M104.497 83.9996H40.4974C36.0855 83.9996 32.4975 80.4116 32.4975 75.9997V28.0001C32.4975 23.5882 36.0855 20.0002 40.4974 20.0002H104.497C108.909 20.0002 112.497 23.5882 112.497 28.0001V75.9997C112.497 80.4116 108.909 83.9996 104.497 83.9996ZM40.4974 24.0002C38.2935 24.0002 36.4975 25.7962 36.4975 28.0001V75.9997C36.4975 78.2036 38.2935 79.9996 40.4974 79.9996H104.497C106.701 79.9996 108.497 78.2036 108.497 75.9997V28.0001C108.497 25.7962 106.701 24.0002 104.497 24.0002H40.4974Z" fill="#676767"/>
    <path d="M52.4973 47.9999C48.0854 47.9999 44.4974 44.412 44.4974 40C44.4974 35.5881 48.0854 32.0001 52.4973 32.0001C56.9093 32.0001 60.4972 35.5881 60.4972 40C60.4972 44.412 56.9093 47.9999 52.4973 47.9999ZM52.4973 36.0001C50.2934 36.0001 48.4974 37.796 48.4974 40C48.4974 42.204 50.2934 44 52.4973 44C54.7013 44 56.4973 42.204 56.4973 40C56.4973 37.796 54.7013 36.0001 52.4973 36.0001Z" fill="#676767"/>
    <path d="M34.7775 79.7196C34.2655 79.7196 33.7535 79.5236 33.3615 79.1356C32.5815 78.3556 32.5815 77.0876 33.3615 76.3077L52.2533 57.4158C54.5173 55.1519 58.4733 55.1519 60.7372 57.4158L66.3612 63.0398L81.929 44.36C83.061 43.004 84.725 42.216 86.497 42.2H86.541C88.293 42.2 89.953 42.96 91.0969 44.292L112.017 68.6997C112.737 69.5357 112.641 70.7997 111.801 71.5197C110.965 72.2397 109.705 72.1477 108.981 71.3037L88.061 46.8959C87.673 46.448 87.137 46.2 86.541 46.2C86.125 46.164 85.393 46.452 85.005 46.9199L68.0332 67.2837C67.6732 67.7157 67.1492 67.9757 66.5852 67.9997C66.0172 68.0397 65.4772 67.8157 65.0812 67.4157L57.9093 60.2438C57.1533 59.4918 55.8373 59.4918 55.0813 60.2438L36.1895 79.1356C35.8015 79.5236 35.2895 79.7196 34.7775 79.7196Z" fill="#676767"/>
</svg>
