<svg width="64" height="64" viewBox="0 0 64 64" fill="none" xmlns="http://www.w3.org/2000/svg">
    <path d="M49.4873 15.4553H55.0625C55.5803 15.4553 56 15.0356 56 14.5178V8.9375C56 8.41968 55.5803 8 55.0625 8H49.4873C48.9695 8 48.5498 8.41968 48.5498 8.9375V10.7902H35.7251V8.9375C35.7251 8.41968 35.3054 8 34.7876 8H29.2124C28.6946 8 28.2749 8.41968 28.2749 8.9375V10.7902H15.4502V8.9375C15.4502 8.41968 15.0305 8 14.5127 8H8.9375C8.41968 8 8 8.41968 8 8.9375V14.5178C8 15.0356 8.41968 15.4553 8.9375 15.4553H14.5127C15.0305 15.4553 15.4502 15.0356 15.4502 14.5178V12.6652H23.249C20.5028 13.9103 18.0269 15.7391 16.0094 18.0518C12.8461 21.678 11.0172 26.2666 10.8059 31.0625H8.9375C8.41968 31.0625 8 31.4822 8 32V37.5803C8 38.0981 8.41968 38.5178 8.9375 38.5178H14.5127C15.0305 38.5178 15.4502 38.0981 15.4502 37.5803V32C15.4502 31.4822 15.0305 31.0625 14.5127 31.0625H12.6831C13.1152 22.2277 19.6144 14.7046 28.2749 13.0134V14.5182C28.2749 15.036 28.6946 15.4557 29.2124 15.4557H34.7876C35.3054 15.4557 35.7251 15.036 35.7251 14.5182V13.0134C44.3856 14.7046 50.8848 22.2277 51.3169 31.0625H49.4873C48.9695 31.0625 48.5498 31.4822 48.5498 32V37.5803C48.5498 38.0981 48.9695 38.5178 49.4873 38.5178H55.0625C55.5803 38.5178 56 38.0981 56 37.5803V32C56 31.4822 55.5803 31.0625 55.0625 31.0625H53.1941C52.9828 26.2666 51.1539 21.678 47.9906 18.0518C45.9731 15.7391 43.4972 13.9103 40.751 12.6652H48.5498V14.5182C48.5498 15.0356 48.9695 15.4553 49.4873 15.4553ZM13.5752 13.5803H9.875V9.875H13.5752V13.5803ZM13.5752 36.6428H9.875V32.9375H13.5752V36.6428ZM54.125 36.6428H50.4248V32.9375H54.125V36.6428ZM33.8501 13.5803H30.1499V9.875H33.8501V13.5803ZM50.4248 9.875H54.125V13.5803H50.4248V9.875Z" fill="#7209B7"/>
    <path d="M32.821 18.329C32.6562 18.0298 32.3417 17.8438 32 17.8438C31.6583 17.8438 31.3438 18.0298 31.179 18.329L27.285 25.3983C27.0353 25.8521 27.2004 26.4222 27.6542 26.6716C28.1072 26.9214 28.6777 26.7566 28.9275 26.3029L31.0625 22.4265V29.3402C29.761 29.7416 28.8125 30.9556 28.8125 32.3871C28.8125 34.1445 30.2426 35.5746 32 35.5746C33.7574 35.5746 35.1875 34.1445 35.1875 32.3871C35.1875 30.9556 34.239 29.7416 32.9375 29.3402V22.4265L39.3693 34.1042C37.2562 36.2415 35.8159 38.9829 35.2563 41.9375H28.7437C28.1837 38.9829 26.7434 36.2415 24.6307 34.1042L25.7052 32.1534C25.955 31.7001 25.7898 31.1299 25.3364 30.8801C24.8831 30.6304 24.3125 30.7952 24.0627 31.2489L22.6418 33.8292C22.4331 34.2079 22.5107 34.6807 22.8297 34.9729C24.8486 36.8219 26.2505 39.2711 26.8306 41.9375H25.9575C24.4066 41.9375 23.145 43.1995 23.145 44.75C23.145 45.8442 23.7731 46.7935 24.6875 47.2582V55.0625C24.6875 55.5803 25.1072 56 25.625 56C26.1428 56 26.5625 55.5803 26.5625 55.0625V47.5625H37.4375V55.0625C37.4375 55.5803 37.8572 56 38.375 56C38.8928 56 39.3125 55.5803 39.3125 55.0625V47.2582C40.2269 46.7935 40.855 45.8439 40.855 44.75C40.855 43.1991 39.5934 41.9375 38.0425 41.9375H37.1694C37.7495 39.2708 39.1514 36.8219 41.1703 34.9725C41.4893 34.6803 41.5669 34.2079 41.3582 33.8289L32.821 18.329ZM32 33.6996C31.2764 33.6996 30.6875 33.1107 30.6875 32.3871C30.6875 31.6631 31.2764 31.0746 32 31.0746C32.7236 31.0746 33.3125 31.6631 33.3125 32.3871C33.3125 33.1107 32.7236 33.6996 32 33.6996ZM38.98 44.75C38.98 45.2671 38.5596 45.6875 38.0425 45.6875H25.9575C25.4404 45.6875 25.02 45.2671 25.02 44.75C25.02 44.2329 25.4404 43.8125 25.9575 43.8125H38.0425C38.5596 43.8125 38.98 44.2329 38.98 44.75Z" fill="#7209B7"/>
    <path d="M26.434 29.7614C26.6808 29.7614 26.9225 29.6617 27.0968 29.4874C27.2711 29.312 27.3715 29.0714 27.3715 28.8239C27.3715 28.577 27.2711 28.3364 27.0968 28.161C26.9225 27.9867 26.6808 27.8864 26.434 27.8864C26.1864 27.8864 25.9447 27.9867 25.7704 28.161C25.5961 28.3364 25.4965 28.577 25.4965 28.8239C25.4965 29.0714 25.5961 29.312 25.7704 29.4874C25.9447 29.6617 26.1864 29.7614 26.434 29.7614Z" fill="#7209B7"/>
</svg>
