<svg width="32" height="32" viewBox="0 0 32 32" fill="none" xmlns="http://www.w3.org/2000/svg">
    <path d="M27.7502 16.6061L24.3212 20.035C23.986 20.3702 23.4442 20.3702 23.109 20.035C22.7739 19.6999 22.7739 19.1581 23.109 18.8229L25.0747 16.8572H16.8572V25.0748L18.8228 23.1091C19.158 22.7739 19.6998 22.7739 20.035 23.1091C20.3702 23.4443 20.3702 23.9861 20.035 24.3213L16.606 27.7502C16.282 28.0751 15.7376 28.0948 15.393 27.7502L11.964 24.3213C11.6289 23.9861 11.6289 23.4443 11.964 23.1091C12.2992 22.7739 12.841 22.7739 13.1762 23.1091L15.1427 25.0748V16.8572H6.92517L8.89083 18.8229C9.22601 19.1581 9.22601 19.6999 8.89083 20.035C8.55565 20.3702 8.01387 20.3702 7.67869 20.035L4.24972 16.6061C3.91797 16.2743 3.91539 15.7274 4.24972 15.3931L7.67869 11.9641C8.01387 11.6289 8.55565 11.6289 8.89083 11.9641C9.22601 12.2993 9.22601 12.8411 8.89083 13.1762L6.92517 15.1428H15.1427V6.92523L13.177 8.89089C12.8419 9.22607 12.3001 9.22607 11.9649 8.89089C11.6297 8.55571 11.6297 8.01393 11.9649 7.67875L15.3939 4.24978C15.7256 3.91803 16.2725 3.91546 16.6069 4.24978L20.0358 7.67875C20.371 8.01393 20.371 8.55571 20.0358 8.89089C19.8678 9.05805 19.6484 9.14206 19.4289 9.14206C19.2095 9.14206 18.99 9.05805 18.8228 8.89089L16.8572 6.92523V15.1428H25.0747L23.109 13.1771C22.7739 12.8419 22.7739 12.3001 23.109 11.965C23.4442 11.6298 23.986 11.6298 24.3212 11.965L27.7502 15.3939C28.0845 15.7274 28.0819 16.2752 27.7502 16.6061Z" fill="#7209B7"/>
</svg>
